# xmcd
#
# Track frame offsets:
# 180
# 29415
# 45065
# 66245
# 87995
# 119454
# 133343
# 151569
# 178749
# 200203
# 224306
# 247364
# 280259
# 308256
#
# Disc length: 4353 seconds
#
#
# Revision: 0
# Processed by: cddbd v1.5.1PL0 Copyright (c) Steve Scherf et al.
# Submitted via: FreeRIP 2.942 
#
DISCID=ca10ff0e
DTITLE=Blues Traveler - Woodstock and More
DYEAR=1995
DGENRE=Rock and Roll
TTITLE0=But Anyway
TTITLE1=Save His Soul
TTITLE2=Hook
TTITLE3=Fallible
TTITLE4=Support Your Local Emperor
TTITLE5=Crash Burn
TTITLE6=What's for Breakfast
TTITLE7=The Star Spangled Banner/ Optimistic Thought
TTITLE8=Hook
TTITLE9=Price to Pay
TTITLE10=But Anyway
TTITLE11=Mullin' it Over
TTITLE12=Stand
TTITLE13=Run-around
EXTD=Locations:1-7,Holmdell, Nj. HordeFest 1994\n8 Saugerties, NY. Woodstock 1994\n9-11 Live in Studio. 12-13 Hollywood, Ca. House of Blues 1994\n14 VH1 1995
EXTT0=
EXTT1=
EXTT2=
EXTT3=
EXTT4=
EXTT5=
EXTT6=
EXTT7=
EXTT8=
EXTT9=
EXTT10=
EXTT11=
EXTT12=
EXTT13=
PLAYORDER=
